<svg xmlns="http://www.w3.org/2000/svg" xmlns:xlink="http://www.w3.org/1999/xlink" width="500" zoomAndPan="magnify" viewBox="0 0 375 374.999991" height="500" preserveAspectRatio="xMidYMid meet" version="1.0"><defs><g/><clipPath id="8a87639406"><path d="M 51.554688 134.546875 L 158.804688 134.546875 L 158.804688 241.796875 L 51.554688 241.796875 Z M 51.554688 134.546875 " clip-rule="nonzero"/></clipPath><clipPath id="e53d6155fa"><path d="M 69.550781 134.546875 L 140.933594 134.546875 C 145.707031 134.546875 150.285156 136.445312 153.660156 139.820312 C 157.035156 143.195312 158.933594 147.773438 158.933594 152.546875 L 158.933594 223.929688 C 158.933594 228.703125 157.035156 233.28125 153.660156 236.65625 C 150.285156 240.03125 145.707031 241.925781 140.933594 241.925781 L 69.550781 241.925781 C 64.777344 241.925781 60.199219 240.03125 56.824219 236.65625 C 53.449219 233.28125 51.554688 228.703125 51.554688 223.929688 L 51.554688 152.546875 C 51.554688 147.773438 53.449219 143.195312 56.824219 139.820312 C 60.199219 136.445312 64.777344 134.546875 69.550781 134.546875 Z M 69.550781 134.546875 " clip-rule="nonzero"/></clipPath><clipPath id="a2588490eb"><path d="M 71.53125 154.238281 L 102.773438 154.238281 L 102.773438 185.480469 L 71.53125 185.480469 Z M 71.53125 154.238281 " clip-rule="nonzero"/></clipPath><clipPath id="39473f85af"><path d="M 79.03125 154.238281 L 95.273438 154.238281 C 97.261719 154.238281 99.171875 155.027344 100.578125 156.433594 C 101.984375 157.839844 102.773438 159.75 102.773438 161.738281 L 102.773438 177.980469 C 102.773438 179.96875 101.984375 181.878906 100.578125 183.285156 C 99.171875 184.691406 97.261719 185.480469 95.273438 185.480469 L 79.03125 185.480469 C 77.042969 185.480469 75.136719 184.691406 73.726562 183.285156 C 72.320312 181.878906 71.53125 179.96875 71.53125 177.980469 L 71.53125 161.738281 C 71.53125 159.75 72.320312 157.839844 73.726562 156.433594 C 75.136719 155.027344 77.042969 154.238281 79.03125 154.238281 Z M 79.03125 154.238281 " clip-rule="nonzero"/></clipPath><clipPath id="c4c50d9365"><path d="M 108.976562 154.238281 L 140.21875 154.238281 L 140.21875 185.480469 L 108.976562 185.480469 Z M 108.976562 154.238281 " clip-rule="nonzero"/></clipPath><clipPath id="3370305674"><path d="M 124.597656 154.238281 C 115.972656 154.238281 108.976562 161.230469 108.976562 169.859375 C 108.976562 178.488281 115.972656 185.480469 124.597656 185.480469 C 133.226562 185.480469 140.21875 178.488281 140.21875 169.859375 C 140.21875 161.230469 133.226562 154.238281 124.597656 154.238281 Z M 124.597656 154.238281 " clip-rule="nonzero"/></clipPath><clipPath id="7c7c5e409a"><path d="M 70.242188 190.574219 L 104 190.574219 L 104 220.890625 L 70.242188 220.890625 Z M 70.242188 190.574219 " clip-rule="nonzero"/></clipPath><clipPath id="1ec4b64bb2"><path d="M 89.382812 192.148438 L 103.574219 216.984375 C 104.035156 217.789062 104.03125 218.785156 103.566406 219.589844 C 103.097656 220.394531 102.238281 220.890625 101.308594 220.890625 L 72.992188 220.890625 C 72.0625 220.890625 71.203125 220.394531 70.734375 219.589844 C 70.265625 218.785156 70.265625 217.789062 70.726562 216.984375 L 84.917969 192.148438 C 85.375 191.347656 86.226562 190.851562 87.148438 190.851562 C 88.074219 190.851562 88.925781 191.347656 89.382812 192.148438 Z M 89.382812 192.148438 " clip-rule="nonzero"/></clipPath></defs><g clip-path="url(#8a87639406)"><g clip-path="url(#e53d6155fa)"><path stroke-linecap="butt" transform="matrix(0.75, 0, 0, 0.75, 51.552928, 134.548263)" fill="none" stroke-linejoin="miter" d="M 23.99714 -0.00185089 L 119.174229 -0.00185089 C 125.538813 -0.00185089 131.64298 2.529399 136.142981 7.0294 C 140.642981 11.5294 143.174231 17.633567 143.174231 23.998151 L 143.174231 119.17524 C 143.174231 125.539824 140.642981 131.643991 136.142981 136.143991 C 131.64298 140.643992 125.538813 143.170034 119.174229 143.170034 L 23.99714 143.170034 C 17.632556 143.170034 11.528389 140.643992 7.028389 136.143991 C 2.528388 131.643991 0.00234665 125.539824 0.00234665 119.17524 L 0.00234665 23.998151 C 0.00234665 17.633567 2.528388 11.5294 7.028389 7.0294 C 11.528389 2.529399 17.632556 -0.00185089 23.99714 -0.00185089 Z M 23.99714 -0.00185089 " stroke="#9f9f9f" stroke-width="26" stroke-opacity="1" stroke-miterlimit="4"/></g></g><g clip-path="url(#a2588490eb)"><g clip-path="url(#39473f85af)"><path stroke-linecap="butt" transform="matrix(0.75, 0, 0, 0.75, 71.531784, 154.238075)" fill="none" stroke-linejoin="miter" d="M 9.999289 0.000274371 L 31.65554 0.000274371 C 34.306582 0.000274371 36.853457 1.052358 38.728457 2.927358 C 40.603458 4.802358 41.655541 7.349233 41.655541 10.000275 L 41.655541 31.656526 C 41.655541 34.307568 40.603458 36.854443 38.728457 38.729444 C 36.853457 40.604444 34.306582 41.656527 31.65554 41.656527 L 9.999289 41.656527 C 7.348247 41.656527 4.80658 40.604444 2.926372 38.729444 C 1.051372 36.854443 -0.000711737 34.307568 -0.000711737 31.656526 L -0.000711737 10.000275 C -0.000711737 7.349233 1.051372 4.802358 2.926372 2.927358 C 4.80658 1.052358 7.348247 0.000274371 9.999289 0.000274371 Z M 9.999289 0.000274371 " stroke="#9f9f9f" stroke-width="18" stroke-opacity="1" stroke-miterlimit="4"/></g></g><g clip-path="url(#c4c50d9365)"><g clip-path="url(#3370305674)"><path stroke-linecap="butt" transform="matrix(0.75, 0, 0, 0.75, 108.978396, 154.238075)" fill="none" stroke-linejoin="miter" d="M 20.825682 0.000274371 C 9.325681 0.000274371 -0.00244433 9.323192 -0.00244433 20.828401 C -0.00244433 32.33361 9.325681 41.656527 20.825682 41.656527 C 32.330891 41.656527 41.653808 32.33361 41.653808 20.828401 C 41.653808 9.323192 32.330891 0.000274371 20.825682 0.000274371 Z M 20.825682 0.000274371 " stroke="#6d6d6d" stroke-width="18" stroke-opacity="1" stroke-miterlimit="4"/></g></g><g clip-path="url(#7c7c5e409a)"><g clip-path="url(#1ec4b64bb2)"><path stroke-linecap="butt" transform="matrix(0.75, 0, 0, 0.75, 68.493449, 188.240774)" fill="none" stroke-linejoin="miter" d="M 27.852487 5.210218 L 46.774363 38.324804 C 47.388946 39.397721 47.383738 40.725846 46.763946 41.798762 C 46.138946 42.871679 44.993113 43.533137 43.753529 43.533137 L 5.998319 43.533137 C 4.758735 43.533137 3.612902 42.871679 2.987902 41.798762 C 2.362902 40.725846 2.362902 39.397721 2.977485 38.324804 L 21.899361 5.210218 C 22.508736 4.14251 23.644153 3.481052 24.87332 3.481052 C 26.107695 3.481052 27.243112 4.14251 27.852487 5.210218 Z M 27.852487 5.210218 " stroke="#4a4a4a" stroke-width="18" stroke-opacity="1" stroke-miterlimit="4"/></g></g><path stroke-linecap="round" transform="matrix(0.53033, -0.53033, 0.53033, 0.53033, 108.26339, 217.684234)" fill="none" stroke-linejoin="miter" d="M 4.499468 4.498261 L 48.104389 4.498261 " stroke="#7db3e9" stroke-width="9" stroke-opacity="1" stroke-miterlimit="4"/><path stroke-linecap="round" transform="matrix(-0.53033, -0.53033, 0.53033, -0.53033, 136.155435, 222.457221)" fill="none" stroke-linejoin="miter" d="M 4.499851 4.501388 L 48.104772 4.501388 " stroke="#7db3e9" stroke-width="9" stroke-opacity="1" stroke-miterlimit="4"/><g fill="#9e9e9e" fill-opacity="1"><g transform="translate(173.937927, 179.370339)"><g><path d="M 11.15625 -23.046875 L 11.15625 0 L 2.703125 0 L 2.703125 -37.125 L 11.15625 -37.125 L 25.921875 -14.078125 L 26.015625 -14.078125 L 26.015625 -37.125 L 34.46875 -37.125 L 34.46875 0 L 26.015625 0 L 11.25 -23.046875 Z M 11.15625 -23.046875 "/></g></g></g><g fill="#9e9e9e" fill-opacity="1"><g transform="translate(211.107888, 179.370339)"><g><path d="M 4.875 -2.75 C 2.3125 -5.03125 1.03125 -7.953125 1.03125 -11.515625 C 1.03125 -15.085938 2.363281 -18.019531 5.03125 -20.3125 C 7.707031 -22.613281 11.007812 -23.765625 14.9375 -23.765625 C 18.8125 -23.765625 22.070312 -22.609375 24.71875 -20.296875 C 27.375 -17.984375 28.703125 -15.054688 28.703125 -11.515625 C 28.703125 -7.972656 27.40625 -5.054688 24.8125 -2.765625 C 22.21875 -0.472656 18.925781 0.671875 14.9375 0.671875 C 10.800781 0.671875 7.445312 -0.46875 4.875 -2.75 Z M 11.046875 -15.4375 C 10.015625 -14.414062 9.5 -13.109375 9.5 -11.515625 C 9.5 -9.929688 9.992188 -8.632812 10.984375 -7.625 C 11.972656 -6.625 13.273438 -6.125 14.890625 -6.125 C 16.453125 -6.125 17.734375 -6.632812 18.734375 -7.65625 C 19.742188 -8.675781 20.25 -9.960938 20.25 -11.515625 C 20.25 -13.109375 19.726562 -14.414062 18.6875 -15.4375 C 17.65625 -16.457031 16.390625 -16.96875 14.890625 -16.96875 C 13.359375 -16.96875 12.078125 -16.457031 11.046875 -15.4375 Z M 11.046875 -15.4375 "/></g></g></g><g fill="#6d6d6d" fill-opacity="1"><g transform="translate(240.863704, 179.370339)"><g><path d="M 8.546875 -23.078125 L 14.171875 -10.53125 L 19.796875 -23.078125 L 29.25 -23.078125 L 16.875 0 L 11.46875 0 L -0.90625 -23.078125 Z M 8.546875 -23.078125 "/></g></g></g><g fill="#4a4a4a" fill-opacity="1"><g transform="translate(269.223077, 179.370339)"><g><path d="M 26.0625 -10.4375 L 9.3125 -10.4375 C 9.3125 -8.820312 9.835938 -7.625 10.890625 -6.84375 C 11.941406 -6.0625 13.082031 -5.671875 14.3125 -5.671875 C 15.601562 -5.671875 16.625 -5.84375 17.375 -6.1875 C 18.125 -6.53125 18.976562 -7.210938 19.9375 -8.234375 L 25.6875 -5.359375 C 23.289062 -1.335938 19.300781 0.671875 13.71875 0.671875 C 10.238281 0.671875 7.253906 -0.519531 4.765625 -2.90625 C 2.273438 -5.289062 1.03125 -8.160156 1.03125 -11.515625 C 1.03125 -14.878906 2.273438 -17.757812 4.765625 -20.15625 C 7.253906 -22.5625 10.238281 -23.765625 13.71875 -23.765625 C 17.382812 -23.765625 20.363281 -22.707031 22.65625 -20.59375 C 24.945312 -18.476562 26.09375 -15.453125 26.09375 -11.515625 C 26.09375 -10.972656 26.082031 -10.613281 26.0625 -10.4375 Z M 9.546875 -14.84375 L 18.3125 -14.84375 C 18.132812 -16.050781 17.660156 -16.972656 16.890625 -17.609375 C 16.128906 -18.253906 15.148438 -18.578125 13.953125 -18.578125 C 12.628906 -18.578125 11.578125 -18.234375 10.796875 -17.546875 C 10.015625 -16.859375 9.597656 -15.957031 9.546875 -14.84375 Z M 9.546875 -14.84375 "/></g></g></g><g fill="#7db3e9" fill-opacity="1"><g transform="translate(173.937927, 231.120335)"><g><path d="M 2.703125 -37.125 L 14.21875 -37.125 C 17.695312 -37.125 20.472656 -36.378906 22.546875 -34.890625 C 24.617188 -33.410156 25.65625 -31.003906 25.65625 -27.671875 C 25.65625 -23.953125 24.109375 -21.296875 21.015625 -19.703125 C 26.296875 -18.773438 28.9375 -15.65625 28.9375 -10.34375 C 28.9375 -7.226562 27.851562 -4.722656 25.6875 -2.828125 C 23.53125 -0.941406 20.5625 0 16.78125 0 L 2.703125 0 Z M 11.15625 -22.59375 L 11.828125 -22.59375 C 13.722656 -22.59375 15.132812 -22.921875 16.0625 -23.578125 C 16.988281 -24.234375 17.453125 -25.3125 17.453125 -26.8125 C 17.453125 -29.332031 15.578125 -30.59375 11.828125 -30.59375 L 11.15625 -30.59375 Z M 11.15625 -6.53125 L 13.8125 -6.53125 C 17.957031 -6.53125 20.03125 -7.910156 20.03125 -10.671875 C 20.03125 -12.316406 19.507812 -13.5 18.46875 -14.21875 C 17.4375 -14.9375 15.882812 -15.296875 13.8125 -15.296875 L 11.15625 -15.296875 Z M 11.15625 -6.53125 "/></g></g></g><g fill="#7db3e9" fill-opacity="1"><g transform="translate(203.907895, 231.120335)"><g><path d="M 3.453125 -35.953125 C 4.390625 -36.878906 5.503906 -37.34375 6.796875 -37.34375 C 8.085938 -37.34375 9.195312 -36.878906 10.125 -35.953125 C 11.050781 -35.023438 11.515625 -33.914062 11.515625 -32.625 C 11.515625 -31.332031 11.050781 -30.222656 10.125 -29.296875 C 9.195312 -28.367188 8.085938 -27.90625 6.796875 -27.90625 C 5.503906 -27.90625 4.390625 -28.367188 3.453125 -29.296875 C 2.523438 -30.222656 2.0625 -31.332031 2.0625 -32.625 C 2.0625 -33.914062 2.523438 -35.023438 3.453125 -35.953125 Z M 2.703125 -23.078125 L 2.703125 0 L 10.671875 0 L 10.671875 -23.078125 Z M 2.703125 -23.078125 "/></g></g></g><g fill="#7db3e9" fill-opacity="1"><g transform="translate(217.49788, 231.120335)"><g><path d="M 4.046875 -23.078125 L 4.046875 -31.6875 L 12.015625 -31.6875 L 12.015625 -23.078125 L 16.875 -23.078125 L 16.875 -17.015625 L 12.015625 -17.015625 L 12.015625 -9.671875 C 12.015625 -7.546875 12.613281 -6.484375 13.8125 -6.484375 C 14.113281 -6.484375 14.425781 -6.539062 14.75 -6.65625 C 15.082031 -6.78125 15.34375 -6.898438 15.53125 -7.015625 L 15.796875 -7.203125 L 17.78125 -0.765625 C 16.0625 0.191406 14.109375 0.671875 11.921875 0.671875 C 10.421875 0.671875 9.128906 0.410156 8.046875 -0.109375 C 6.972656 -0.640625 6.15625 -1.347656 5.59375 -2.234375 C 5.039062 -3.117188 4.644531 -4.046875 4.40625 -5.015625 C 4.164062 -5.992188 4.046875 -7.035156 4.046875 -8.140625 L 4.046875 -17.015625 L 0.71875 -17.015625 L 0.71875 -23.078125 Z M 4.046875 -23.078125 "/></g></g></g></svg>